<?xml version="1.0" encoding="UTF-8"?>
<svg width="100pt" height="100pt" version="1.1" viewBox="0 0 100 100" xmlns="http://www.w3.org/2000/svg">
 <path d="m12 23c-2.7539 0-5 2.2461-5 5v44c0 2.7539 2.2461 5 5 5h76c2.7539 0 5-2.2461 5-5v-44c0-2.7539-2.2461-5-5-5zm0 2h76c1.6797 0 3 1.3203 3 3v44c0 1.6797-1.3203 3-3 3h-76c-1.6797 0-3-1.3203-3-3v-44c0-1.6797 1.3203-3 3-3zm8.9375 12.969c-0.41016 0.015625-0.76953 0.27734-0.90625 0.66406-0.13672 0.38281-0.027344 0.81641 0.28125 1.0859l11.188 10.281-11.188 10.25c-0.19531 0.18359-0.3125 0.43359-0.32031 0.70312-0.011719 0.26562 0.085937 0.52734 0.26953 0.72266 0.18359 0.19531 0.4375 0.30859 0.70312 0.31641 0.26953 0.011718 0.52734-0.089844 0.72266-0.27344l12-11c0.20312-0.1875 0.32031-0.45703 0.32031-0.73438s-0.11719-0.54688-0.32031-0.73438l-12-11c-0.19922-0.19531-0.47266-0.29688-0.75-0.28125zm58 0c-0.23438 0.015625-0.45703 0.11719-0.625 0.28125l-12 11c-0.20312 0.1875-0.32031 0.45703-0.32031 0.73438s0.11719 0.54688 0.32031 0.73438l12 11c0.19531 0.18359 0.45312 0.28516 0.72266 0.27344 0.26562-0.007813 0.51953-0.12109 0.70312-0.31641 0.18359-0.19531 0.28125-0.45703 0.26953-0.72266-0.007812-0.26953-0.125-0.51953-0.32031-0.70312l-11.188-10.25 11.188-10.281c0.32812-0.28516 0.43359-0.75 0.26172-1.1484-0.17188-0.39844-0.57812-0.64062-1.0117-0.60156zm-38.125 3.0312c-0.55078 0.050781-0.95703 0.54297-0.90625 1.0938s0.54297 0.95703 1.0938 0.90625h18c0.26953 0.003906 0.52734-0.10156 0.71484-0.28906 0.19141-0.1875 0.30078-0.44141 0.30078-0.71094s-0.10938-0.52344-0.30078-0.71094c-0.1875-0.1875-0.44531-0.29297-0.71484-0.28906h-18c-0.0625-0.007812-0.125-0.007812-0.1875 0zm0 16c-0.55078 0.050781-0.95703 0.54297-0.90625 1.0938s0.54297 0.95703 1.0938 0.90625h18c0.26953 0.003906 0.52734-0.10156 0.71484-0.28906 0.19141-0.1875 0.30078-0.44141 0.30078-0.71094s-0.10938-0.52344-0.30078-0.71094c-0.1875-0.1875-0.44531-0.29297-0.71484-0.28906h-18c-0.0625-0.007812-0.125-0.007812-0.1875 0z"/>
</svg>
