<?xml version="1.0" encoding="UTF-8"?>
<svg width="100pt" height="100pt" version="1.1" viewBox="0 0 100 100" xmlns="http://www.w3.org/2000/svg">
 <g>
  <path d="m72.031 14.844c0.078125 0.078125 0.23438 0.15625 0.39062 0.15625s0.3125-0.078125 0.39062-0.15625c0.23438-0.23438 0.23438-0.625 0-0.78125l-1.25-1.25c-0.23438-0.23438-0.625-0.23438-0.78125 0-0.23438 0.23438-0.23438 0.625 0 0.78125z"/>
  <path d="m76.094 18.906c0.078125 0.078125 0.23438 0.15625 0.39062 0.15625s0.3125-0.078125 0.39062-0.15625c0.23438-0.23438 0.23438-0.625 0-0.78125l-1.25-1.25c-0.23438-0.23438-0.625-0.23438-0.78125 0-0.23438 0.23438-0.23438 0.625 0 0.78125z"/>
  <path d="m71.172 19.062c0.15625 0 0.3125-0.078125 0.39062-0.15625l1.25-1.25c0.23438-0.23438 0.23438-0.625 0-0.78125-0.23438-0.23438-0.625-0.23438-0.78125 0l-1.25 1.25c-0.23438 0.23438-0.23438 0.625 0 0.78125 0.15625 0.078125 0.23438 0.15625 0.39062 0.15625z"/>
  <path d="m75.234 15c0.15625 0 0.3125-0.078125 0.39062-0.15625l1.25-1.25c0.23438-0.23438 0.23438-0.625 0-0.78125-0.23438-0.23438-0.625-0.23438-0.78125 0l-1.25 1.25c-0.23438 0.23438-0.23438 0.625 0 0.78125 0.15625 0.078125 0.23438 0.15625 0.39062 0.15625z"/>
  <path d="m1.4062 87.734c-0.23438-0.23438-0.625-0.23438-0.78125 0s-0.23438 0.625 0 0.78125l1.25 1.25c0.078125 0.078125 0.23438 0.15625 0.39062 0.15625s0.3125-0.078125 0.39062-0.15625c0.23438-0.23438 0.23438-0.625 0-0.78125z"/>
  <path d="m5.4688 91.797c-0.23438-0.23438-0.625-0.23438-0.78125 0-0.23438 0.23438-0.23438 0.625 0 0.78125l1.25 1.25c0.078125 0.078125 0.23438 0.15625 0.39062 0.15625s0.3125-0.078125 0.39062-0.15625c0.23438-0.23438 0.23438-0.625 0-0.78125z"/>
  <path d="m1.7969 91.797l-1.25 1.25c-0.23438 0.23438-0.23438 0.625 0 0.78125 0.078125 0.078125 0.23438 0.15625 0.39062 0.15625s0.3125-0.078125 0.39062-0.15625l1.25-1.25c0.23438-0.23438 0.23438-0.625 0-0.78125-0.15625-0.23438-0.54688-0.23438-0.78125 0z"/>
  <path d="m5.8594 87.734l-1.25 1.25c-0.23438 0.23438-0.23438 0.625 0 0.78125 0.078125 0.078125 0.23438 0.15625 0.39062 0.15625s0.3125-0.078125 0.39062-0.15625l1.25-1.25c0.23438-0.23438 0.23438-0.625 0-0.78125-0.15625-0.23438-0.54688-0.23438-0.78125 0z"/>
  <path d="m92.109 50.234c-0.23438 0.23438-0.23438 0.625 0 0.78125l1.25 1.25c0.078125 0.078125 0.23438 0.15625 0.39062 0.15625s0.3125-0.078125 0.39062-0.15625c0.23438-0.23438 0.23438-0.625 0-0.78125l-1.25-1.25c-0.23438-0.23438-0.625-0.23438-0.78125 0z"/>
  <path d="m97.422 56.328c0.078125 0.078125 0.23438 0.15625 0.39062 0.15625s0.3125-0.078125 0.39062-0.15625c0.23438-0.23438 0.23438-0.625 0-0.78125l-1.25-1.25c-0.23438-0.23438-0.625-0.23438-0.78125 0-0.23438 0.23438-0.23438 0.625 0 0.78125z"/>
  <path d="m93.359 54.297l-1.25 1.25c-0.23438 0.23438-0.23438 0.625 0 0.78125 0.078125 0.078125 0.23438 0.15625 0.39062 0.15625s0.3125-0.078125 0.39062-0.15625l1.25-1.25c0.23438-0.23438 0.23438-0.625 0-0.78125-0.23438-0.23438-0.625-0.23438-0.78125 0z"/>
  <path d="m96.562 52.422c0.15625 0 0.3125-0.078125 0.39062-0.15625l1.25-1.25c0.23438-0.23438 0.23438-0.625 0-0.78125-0.23438-0.23438-0.625-0.23438-0.78125 0l-1.25 1.25c-0.23438 0.23438-0.23438 0.625 0 0.78125 0.078125 0.15625 0.23438 0.15625 0.39062 0.15625z"/>
  <path d="m3.5938 31.797c0.3125 0 0.54688-0.23438 0.54688-0.54688v-9.2188c0-0.3125-0.23438-0.54688-0.54688-0.54688s-0.54688 0.23438-0.54688 0.54688v9.2188c0 0.3125 0.23438 0.54688 0.54688 0.54688z"/>
  <path d="m3.5938 39.453c0.3125 0 0.54688-0.23438 0.54688-0.54688v-3.2812c0-0.3125-0.23438-0.54688-0.54688-0.54688s-0.54688 0.23438-0.54688 0.54688v3.2812c0 0.23438 0.23438 0.54688 0.54688 0.54688z"/>
  <path d="m92.109 15.781c0.3125 0 0.54688-0.23438 0.54688-0.54688v-9.2188c0-0.3125-0.23438-0.54688-0.54688-0.54688s-0.54688 0.23438-0.54688 0.54688v9.2188c-0.078125 0.3125 0.23438 0.54688 0.54688 0.54688z"/>
  <path d="m92.109 23.438c0.3125 0 0.54688-0.23438 0.54688-0.54688v-3.3594c0-0.3125-0.23438-0.54688-0.54688-0.54688s-0.54688 0.23438-0.54688 0.54688v3.2812c-0.078125 0.39062 0.23438 0.625 0.54688 0.625z"/>
  <path d="m44.375 16.406c1.4844 0 2.7344-1.25 2.7344-2.7344s-1.25-2.7344-2.7344-2.7344-2.7344 1.25-2.7344 2.7344 1.25 2.7344 2.7344 2.7344zm0-4.2969c0.85938 0 1.5625 0.70312 1.5625 1.5625s-0.70312 1.5625-1.5625 1.5625-1.5625-0.70312-1.5625-1.5625 0.70312-1.5625 1.5625-1.5625z"/>
  <path d="m38.047 87.109c-1.4844 0-2.7344 1.25-2.7344 2.7344s1.25 2.7344 2.7344 2.7344 2.7344-1.25 2.7344-2.7344-1.25-2.7344-2.7344-2.7344zm0 4.2969c-0.85938 0-1.5625-0.70312-1.5625-1.5625s0.70312-1.5625 1.5625-1.5625 1.5625 0.70312 1.5625 1.5625-0.70312 1.5625-1.5625 1.5625z"/>
  <path d="m6.3281 63.438c0-1.4844-1.25-2.7344-2.7344-2.7344s-2.7344 1.25-2.7344 2.7344 1.25 2.7344 2.7344 2.7344c1.5625 0 2.7344-1.25 2.7344-2.7344zm-2.7344 1.5625c-0.85938 0-1.5625-0.70312-1.5625-1.5625s0.70312-1.5625 1.5625-1.5625 1.5625 0.70312 1.5625 1.5625-0.625 1.5625-1.5625 1.5625z"/>
  <path d="m14.141 10.156c0 0.3125 0.23438 0.54688 0.54688 0.54688h12.031c0.3125 0 0.54688-0.23438 0.54688-0.54688s-0.23438-0.54688-0.54688-0.54688h-12.031c-0.3125-0.078125-0.54688 0.23438-0.54688 0.54688z"/>
  <path d="m6.875 10.703h3.9062c0.3125 0 0.54688-0.23438 0.54688-0.54688s-0.23438-0.54688-0.54688-0.54688h-3.9062c-0.3125-0.078125-0.625 0.23438-0.625 0.54688s0.3125 0.54688 0.625 0.54688z"/>
  <path d="m6.875 6.5625h8.4375c0.3125 0 0.54688-0.23438 0.54688-0.54688s-0.23438-0.54688-0.54688-0.54688h-8.4375c-0.3125-0.078125-0.625 0.23438-0.625 0.54688s0.3125 0.54688 0.625 0.54688z"/>
  <path d="m18.906 6.5625h2.7344c0.3125 0 0.54688-0.23438 0.54688-0.54688s-0.3125-0.625-0.625-0.625h-2.7344c-0.3125 0-0.54688 0.23438-0.54688 0.54688s0.3125 0.625 0.625 0.625z"/>
  <path d="m91.719 89.844c0-0.3125-0.23438-0.54688-0.54688-0.54688h-12.031c-0.3125 0-0.54688 0.23438-0.54688 0.54688s0.23438 0.54688 0.54688 0.54688h12.031c0.3125 0.078125 0.54688-0.23438 0.54688-0.54688z"/>
  <path d="m94.531 89.844c0 0.3125 0.23438 0.54688 0.54688 0.54688h3.9062c0.3125 0 0.54688-0.23438 0.54688-0.54688s-0.23438-0.54688-0.54688-0.54688h-3.9062c-0.23438 0-0.54688 0.23438-0.54688 0.54688z"/>
  <path d="m99.062 93.438h-8.4375c-0.3125 0-0.54688 0.23438-0.54688 0.54688s0.23438 0.54688 0.54688 0.54688h8.4375c0.3125 0 0.54688-0.23438 0.54688-0.54688s-0.23438-0.54688-0.54688-0.54688z"/>
  <path d="m87.031 93.438h-2.7344c-0.3125 0-0.54688 0.23438-0.54688 0.54688s0.23438 0.54688 0.54688 0.54688h2.7344c0.3125 0 0.54688-0.23438 0.54688-0.54688s-0.23438-0.54688-0.54688-0.54688z"/>
  <path d="m16.797 29.844c-2.2656 0-4.1406 1.875-4.1406 4.1406v40c0 0.3125 0.23438 0.54688 0.54688 0.54688h74.453c0.3125 0 0.54688-0.23438 0.54688-0.54688v-40c0-2.2656-1.875-4.1406-4.1406-4.1406h-21.094c-0.85938-1.7188-1.9531-3.2031-3.2812-4.6094-3.3594-3.3594-7.7344-5.1562-12.422-5.1562s-9.1406 1.7969-12.422 5.1562c-1.3281 1.3281-2.5 2.8906-3.2812 4.6094zm67.344 1.1719c1.6406 0 2.9688 1.3281 2.9688 2.9688v39.453h-73.359v-39.453c0-1.6406 1.3281-2.9688 2.9688-2.9688h14.219c-0.078125 0.23438-0.15625 0.39062-0.23438 0.625-0.39062 1.0938-0.70312 2.3438-0.9375 3.5938-0.078125 0.78125-0.15625 1.5625-0.15625 2.4219 0 2.2656 0.39062 4.4531 1.1719 6.4844 0.85938 2.2656 2.1875 4.2969 3.9844 6.0938 3.4375 3.4375 7.9688 5.1562 12.422 5.1562 3.6719 0 7.4219-1.1719 10.547-3.5938l14.766 17.5c0.46875 0.54688 1.0938 0.78125 1.7188 0.85938h0.078125c0.625 0 1.25-0.23438 1.7188-0.70312l2.8125-2.8125c0.46875-0.46875 0.70312-1.0938 0.70312-1.7969s-0.3125-1.3281-0.85938-1.7188l-17.344-14.844c0.9375-1.25 1.7969-2.6562 2.3438-4.1406 0.78125-2.0312 1.25-4.2188 1.1719-6.4844 0-0.85938-0.078125-1.6406-0.15625-2.4219-0.15625-1.25-0.46875-2.4219-0.9375-3.5938-0.078125-0.23438-0.15625-0.39062-0.23438-0.625zm-24.453 19.141c0.3125-0.3125 0.54688-0.625 0.78125-0.85938l0.078125-0.078125 17.5 14.766c0.23438 0.23438 0.39062 0.54688 0.46875 0.9375 0 0.3125-0.078125 0.70312-0.39062 0.9375l-2.8125 2.8125c-0.23438 0.23438-0.54688 0.39062-0.9375 0.39062s-0.70312-0.15625-0.9375-0.46875l-14.688-17.5c0.078125 0 0.078125-0.078125 0.078125-0.078125 0.3125-0.3125 0.625-0.54688 0.85938-0.85938zm-24.062-24.062c3.125-3.125 7.2656-4.8438 11.641-4.8438s8.5156 1.7188 11.641 4.8438c1.7188 1.7188 2.9688 3.6719 3.8281 5.9375 0.39062 1.0938 0.70312 2.1875 0.85938 3.3594 0.078125 0.70312 0.15625 1.4844 0.15625 2.2656 0 2.1094-0.39062 4.1406-1.0938 6.0156-0.625 1.5625-1.4844 3.0469-2.5 4.2969-0.3125 0.3125-0.54688 0.70312-0.9375 1.0156-0.078125 0.078125-0.15625 0.23438-0.3125 0.3125-0.23438 0.23438-0.46875 0.46875-0.78125 0.70312-0.15625 0.15625-0.39062 0.3125-0.625 0.46875-6.5625 5.2344-16.016 4.7656-21.953-1.1719-1.6406-1.6406-2.8906-3.5156-3.6719-5.7031-0.78125-1.9531-1.0938-3.9844-1.0938-6.0156 0-0.78125 0.078125-1.5625 0.15625-2.2656 0.15625-1.1719 0.46875-2.2656 0.85938-3.3594 0.85938-2.1875 2.1094-4.1406 3.8281-5.8594z"/>
  <path d="m95.156 80l0.85938-1.4844c0.15625-0.3125 0.15625-0.70312 0-1.0156s-0.54688-0.54688-0.85938-0.54688h-89.453c-0.39062 0-0.70312 0.23438-0.85938 0.54688s-0.15625 0.70312 0 1.0156l0.85938 1.4844c1.4844 2.5 4.2969 4.0625 7.1875 4.0625h75c2.9688 0 5.7031-1.5625 7.2656-4.0625zm-88.438-0.54688l-0.78125-1.25h88.906l-0.78125 1.25c-1.3281 2.1875-3.6719 3.5156-6.25 3.5156h-75c-2.4219 0-4.7656-1.4062-6.0938-3.5156z"/>
  <path d="m47.266 42.344c0.23438 0 0.54688 0 0.78125-0.078125 1.25-0.23438 2.2656-0.85938 2.9688-1.875s1.0156-2.2656 0.78125-3.4375c-0.46875-2.5-2.8125-4.2188-5.3906-3.8281-2.5 0.46875-4.2188 2.8125-3.8281 5.3906 0.46875 2.2656 2.4219 3.8281 4.6875 3.8281zm-0.625-8.0469c0.23438 0 0.39062-0.078125 0.625-0.078125 0.70312 0 1.4062 0.23438 2.0312 0.625 0.78125 0.54688 1.25 1.3281 1.4062 2.2656s-0.078125 1.875-0.625 2.5781c-0.54688 0.78125-1.3281 1.25-2.2656 1.4062-1.875 0.3125-3.6719-0.9375-4.0625-2.8906-0.23438-1.7969 1.0156-3.5938 2.8906-3.9062z"/>
  <path d="m35.391 37.969l0.78125-0.078125c0.23438 0 0.54688 0.078125 0.70312 0.23438 0.23438 0.15625 0.3125 0.39062 0.39062 0.70312 0 0.23438-0.078125 0.54688-0.23438 0.70312-0.15625 0.23438-0.39062 0.3125-0.70312 0.39062l-0.78125 0.078125c-0.15625 0-0.3125 0.078125-0.39062 0.23438s-0.15625 0.3125-0.078125 0.46875c0.54688 2.1094 1.5625 4.0625 3.0469 5.625 0.078125 0.15625 0.3125 0.23438 0.46875 0.15625 0.15625 0 0.3125-0.078125 0.39062-0.23438l0.54688-0.625c0.3125-0.39062 1.0156-0.46875 1.4062-0.15625 0.46875 0.3125 0.46875 1.0156 0.15625 1.4062l-0.46875 0.70312c-0.078125 0.15625-0.15625 0.3125-0.15625 0.46875s0.15625 0.3125 0.23438 0.39062c1.875 1.0938 3.9844 1.7188 6.1719 1.7969 0.15625 0 0.3125-0.078125 0.39062-0.15625 0.078125-0.15625 0.15625-0.3125 0.15625-0.46875l-0.078125-0.78125c0-0.23438 0.078125-0.54688 0.23438-0.70312 0.15625-0.23438 0.39062-0.3125 0.70312-0.39062 0.54688-0.078125 1.0156 0.3125 1.0938 0.85938l0.078125 0.78125c0 0.15625 0.078125 0.3125 0.23438 0.39062s0.3125 0.15625 0.46875 0.078125c2.1094-0.54688 4.0625-1.5625 5.625-3.0469 0.15625-0.078125 0.15625-0.3125 0.15625-0.46875s-0.078125-0.3125-0.23438-0.39062l-0.625-0.54688c-0.39062-0.3125-0.46875-1.0156-0.15625-1.4062s1.0156-0.46875 1.4062-0.15625l0.625 0.54688c0.15625 0.078125 0.3125 0.15625 0.46875 0.15625s0.3125-0.15625 0.39062-0.23438c1.0938-1.875 1.7188-3.9844 1.7969-6.1719 0-0.15625-0.078125-0.3125-0.15625-0.46875-0.15625-0.078125-0.3125-0.15625-0.46875-0.15625l-0.78125 0.078125c-0.54688 0.078125-1.0156-0.3125-1.0938-0.85938 0-0.23438 0.078125-0.54688 0.23438-0.70312 0.15625-0.23438 0.39062-0.3125 0.70312-0.39062l0.78125-0.078125c0.15625 0 0.3125-0.078125 0.39062-0.23438s0.15625-0.3125 0.078125-0.46875c-0.54688-2.1094-1.5625-4.0625-3.0469-5.625-0.078125-0.15625-0.23438-0.15625-0.46875-0.15625-0.15625 0-0.3125 0.078125-0.39062 0.23438l-0.54688 0.625c-0.3125 0.46875-1.0156 0.46875-1.4062 0.15625s-0.46875-1.0156-0.15625-1.4062l0.54688-0.625c0.078125-0.15625 0.15625-0.3125 0.15625-0.46875s-0.15625-0.3125-0.23438-0.39062c-1.875-1.0938-3.9844-1.7188-6.1719-1.7969-0.15625 0-0.3125 0.078125-0.46875 0.15625-0.078125 0.15625-0.15625 0.3125-0.15625 0.46875l0.078125 0.78125c0 0.23438-0.078125 0.54688-0.23438 0.70312-0.15625 0.23438-0.39062 0.3125-0.70312 0.39062-0.23438 0-0.54688-0.078125-0.70312-0.23438-0.23438-0.15625-0.3125-0.39062-0.39062-0.70312l-0.078125-0.78125c0-0.15625-0.078125-0.3125-0.23438-0.39062s-0.3125-0.15625-0.46875-0.078125c-2.1094 0.54688-4.0625 1.5625-5.625 3.0469-0.15625 0.078125-0.15625 0.3125-0.15625 0.46875s0.078125 0.3125 0.23438 0.39062l0.625 0.54688c0.46875 0.3125 0.46875 1.0156 0.15625 1.4062-0.3125 0.46875-1.0156 0.46875-1.4062 0.15625l-0.625-0.54688c-0.15625-0.078125-0.3125-0.15625-0.46875-0.15625s-0.3125 0.15625-0.39062 0.23438c-1.0938 1.875-1.7188 3.9844-1.7969 6.1719 0 0.15625 0.078125 0.3125 0.15625 0.46875 0.15625 0.078125 0.3125 0.15625 0.46875 0.078125zm1.875-5.5469l0.078125 0.078125c0.9375 0.70312 2.2656 0.625 3.0469-0.3125 0.70312-0.9375 0.625-2.2656-0.3125-3.0469l-0.078125-0.078125c1.1719-1.0156 2.5-1.7188 3.9844-2.1875v0.15625c0.078125 0.54688 0.3125 1.0938 0.78125 1.4844s1.0156 0.54688 1.5625 0.46875 1.0938-0.3125 1.4844-0.78125 0.54688-1.0156 0.46875-1.5625v-0.15625c1.4844 0.15625 2.9688 0.54688 4.375 1.25l-0.078125 0.078125c-0.70312 0.9375-0.625 2.2656 0.3125 3.0469 0.9375 0.70312 2.2656 0.625 3.0469-0.3125l0.078125-0.078125c1.0156 1.1719 1.7188 2.5 2.1875 3.9844h-0.15625c-0.54688 0.078125-1.0938 0.3125-1.4844 0.78125s-0.54688 1.0156-0.46875 1.5625c0.15625 1.1719 1.1719 2.0312 2.3438 1.875h0.15625c-0.15625 1.4844-0.54688 2.9688-1.25 4.375l-0.15625-0.078125c-0.9375-0.70312-2.2656-0.625-3.0469 0.3125-0.70312 0.9375-0.625 2.2656 0.3125 3.0469l0.078125 0.078125c-1.1719 1.0156-2.5 1.7188-3.9844 2.1875v-0.15625c-0.15625-1.1719-1.1719-2.0312-2.3438-1.875-0.54688 0.078125-1.0938 0.3125-1.4844 0.78125s-0.54688 1.0156-0.46875 1.5625v0.15625c-1.4844-0.15625-2.9688-0.54688-4.375-1.25l0.078125-0.078125c0.70312-0.9375 0.625-2.2656-0.3125-3.0469-0.9375-0.70312-2.2656-0.625-3.0469 0.3125l-0.078125 0.078125c-1.0156-1.1719-1.7188-2.5-2.1875-3.9844h0.15625c0.54688-0.078125 1.0938-0.3125 1.4844-0.78125s0.54688-1.0156 0.46875-1.5625-0.3125-1.0938-0.78125-1.4844-1.0156-0.54688-1.5625-0.46875h-0.15625c0.15625-1.5625 0.625-2.9688 1.3281-4.375z"/>
  <path d="m38.516 59.688c-0.23438-0.15625-0.625-0.078125-0.78125 0.15625s-0.078125 0.625 0.15625 0.78125l5.2344 3.2812-5.2344 3.2812c-0.23438 0.15625-0.39062 0.54688-0.15625 0.78125 0.078125 0.15625 0.3125 0.23438 0.46875 0.23438 0.078125 0 0.23438 0 0.3125-0.078125l6.0156-3.75c0.15625-0.078125 0.23438-0.3125 0.23438-0.46875s-0.078125-0.39062-0.23438-0.46875z"/>
  <path d="m26.172 59.844c-0.15625-0.23438-0.54688-0.39062-0.78125-0.15625l-6.0156 3.75c-0.15625 0.078125-0.23438 0.3125-0.23438 0.46875s0.078125 0.39062 0.23438 0.46875l6.0156 3.75c0.078125 0.078125 0.23438 0.078125 0.3125 0.078125 0.15625 0 0.39062-0.078125 0.46875-0.23438 0.15625-0.23438 0.078125-0.625-0.15625-0.78125l-5.2344-3.2812 5.2344-3.2812c0.23438-0.15625 0.3125-0.46875 0.15625-0.78125z"/>
  <path d="m34.297 57.656c-0.3125-0.078125-0.625 0-0.70312 0.3125l-4.2969 11.328c-0.078125 0.3125 0 0.625 0.3125 0.70312h0.23438c0.23438 0 0.46875-0.15625 0.54688-0.39062l4.2969-11.328c0.078125-0.23438-0.078125-0.54688-0.39062-0.625z"/>
 </g>
</svg>
